# xmcd
#
# Track frame offsets: 
#        190
#        25580
#        44747
#        60880
#        71755
#        87480
#        100815
#        116785
#        131322
#        153822
#        174342
#        188487
#        207037
#        220920
#        238532
#        255132
#        267117
#        290950
#        312957
#        322237
#
# Disc length: 4518 seconds
#
# Revision: 1
# Processed by: cddbd v1.5.1PL0 Copyright (c) Steve Scherf et al.
# Submitted via: ExactAudioCopy v0.90b4
#
DISCID=1711a414
DTITLE=Justament - Kaua sa kannatad ...
DYEAR=1999
DGENRE=Country
TTITLE0=Kaua sa kannatad kurbade naeru
TTITLE1=Tasakaal
TTITLE2=Raha teekond
TTITLE3=Viimne leht
TTITLE4=Kerberos
TTITLE5=Karude elust
TTITLE6=Kaugelt maalt
TTITLE7=Meie aja kangelane
TTITLE8=Petseri tsura ja Hiitola ätt
TTITLE9=Life is too short
TTITLE10=Annie's song
TTITLE11=Kogu elu on tee
TTITLE12=Maa tuleb täita lastega
TTITLE13=Kesse laulab köögis
TTITLE14=Emad ja pojad
TTITLE15=Vangile ei meeldi trellid
TTITLE16=Ringmängu laul
TTITLE17=Dziisös Kraist ja Maarjamaa
TTITLE18=On the road again
TTITLE19=Tõuse üles ja läheme ära
EXTD=YEAR: 1999
EXTT0=
EXTT1=
EXTT2=
EXTT3=
EXTT4=
EXTT5=
EXTT6=
EXTT7=
EXTT8=
EXTT9=
EXTT10=
EXTT11=
EXTT12=
EXTT13=
EXTT14=
EXTT15=
EXTT16=
EXTT17=
EXTT18=
EXTT19=
PLAYORDER=
